<svg width="500px" height="160px" viewBox="0 0 500 160" version="1.1" xmlns="http://www.w3.org/2000/svg" xmlns:xlink="http://www.w3.org/1999/xlink">
    <g id="Page-1" stroke="none" stroke-width="1" fill="none" fill-rule="evenodd">
        <g id="Artboard" fill="#000000">
            <path d="M239.839106,0 L319.785475,160 L159.892737,160 L239.839106,0 Z M239.839106,16 L171.884693,152 L307.79352,152 L239.839106,16 Z" id="Combined-Shape"></path>
            <path d="M151.78894,76 C149.714805,38.0960438 118.342884,8 79.9463687,8 C40.2085245,8 7.99463687,40.235498 7.99463687,80 C7.99463687,119.764502 40.2085245,152 79.9463687,152 C118.342884,152 149.714805,121.903956 151.78894,84 L79.9463687,84 L79.9463687,76 L151.78894,76 Z M79.9463687,160 C35.7932085,160 0,124.18278 0,80 C0,35.81722 35.7932085,0 79.9463687,0 C124.099529,0 159.892737,35.81722 159.892737,80 C159.892737,124.18278 124.099529,160 79.9463687,160 Z" id="Combined-Shape"></path>
            <path d="M340,120 L500,120 L500,160 L340,160 L340,120 Z M348,128 L348,152 L492,152 L492,128 L348,128 Z" id="Combined-Shape"></path>
        </g>
    </g>
</svg>