<svg width="544px" height="96px" viewBox="0 0 544 96" version="1.1" xmlns="http://www.w3.org/2000/svg" xmlns:xlink="http://www.w3.org/1999/xlink">
    <g stroke="none" stroke-width="1" fill="none" fill-rule="evenodd">
        <g transform="translate(24.000000, 76.000000)" fill="#101030">
            <path d="M4.20316258,0.798117553 C1.67522447,0.736944874 1.54873849,2.46813169 1.54873849,2.46813169 C1.54873849,2.46813169 1.02622669,5.35870177 6.7311007,6.62803486 C12.4359747,7.89736795 12.498334,1.92173257 24.4860649,1.92173257 C24.4829669,2.27333079 24.4954444,2.63886541 24.4860649,3.26317778 C24.4766853,3.88749015 24.4860649,4.89803212 24.4860649,4.89803212 C23.7062441,8.25602906 21.7522773,13.0952638 12,11.7816977 C2.24772272,10.4681316 0.419945284,5.13948803 0.134034531,4.07246174 C-0.151876221,3.00543545 -0.394157429,-0.0692749901 4.05761463,0.00689724245 C4.4657546,-0.0692749901 5.43274883,0.504327713 4.20316258,0.798117553 Z" id="Path-4"></path>
            <path d="M28.2031626,0.798117553 C25.6752245,0.736944874 25.5487385,2.46813169 25.5487385,2.46813169 C25.5487385,2.46813169 25.0262267,5.35870177 30.7311007,6.62803486 C36.4359747,7.89736795 36.498334,1.92173257 48.4860649,1.92173257 C48.4829669,2.27333079 48.4954444,2.63886541 48.4860649,3.26317778 C48.4766853,3.88749015 48.4860649,4.89803212 48.4860649,4.89803212 C47.7062441,8.25602906 45.7522773,13.0952638 36,11.7816977 C26.2477227,10.4681316 24.4199453,5.13948803 24.1340345,4.07246174 C23.8481238,3.00543545 23.6058426,-0.0692749901 28.0576146,0.00689724245 C28.4657546,-0.0692749901 29.4327488,0.504327713 28.2031626,0.798117553 Z" id="Path-4" transform="translate(36.244812, 6.001188) scale(-1, 1) translate(-36.244812, -6.001188) "></path>
        </g>
        <g transform="translate(-0.664985, 8.000000)">
            <g transform="translate(39.122201, 50.115144)"></g>
            <rect fill="#101030" x="16.6649849" y="0" width="64" height="8" rx="4"></rect>
            <rect fill="#101030" x="16.6649849" y="12" width="64" height="8" rx="4"></rect>
            <rect fill="#101030" x="0.664984946" y="36" width="96" height="8" rx="4"></rect>
            <rect fill="#101030" x="16.6649849" y="24" width="24" height="8" rx="4"></rect>
            <rect fill="#101030" x="44.6649849" y="24" width="36" height="8" rx="4"></rect>
        </g>
        <circle id="Oval-3-Copy-3" fill="#101030" cx="32" cy="64" r="4"></circle>
        <circle id="Oval-3-Copy-3" fill="#101030" cx="64" cy="64" r="4"></circle>
        <path d="M141.401709,23 L154.188034,59.1025641 L166.905983,23 L180.376068,23 L180.376068,72.7777778 L170.08547,72.7777778 L170.08547,59.1709402 L171.111111,35.6837607 L157.675214,72.7777778 L150.632479,72.7777778 L137.230769,35.7179487 L138.25641,59.1709402 L138.25641,72.7777778 L128,72.7777778 L128,23 L141.401709,23 Z M209.470085,45.0512821 C208.125349,44.868945 206.940176,44.7777778 205.91453,44.7777778 C202.176619,44.7777778 199.726502,46.0427224 198.564103,48.5726496 L198.564103,72.7777778 L188.683761,72.7777778 L188.683761,35.7863248 L198.017094,35.7863248 L198.290598,40.1965812 C200.273514,36.8005528 203.019925,35.1025641 206.529915,35.1025641 C207.623937,35.1025641 208.649568,35.2507108 209.606838,35.5470085 L209.470085,45.0512821 Z M212.735043,67.9230769 C212.735043,66.3504195 213.264952,65.074079 214.324786,64.0940171 C215.384621,63.1139552 216.712243,62.6239316 218.307692,62.6239316 C219.925934,62.6239316 221.264952,63.1139552 222.324786,64.0940171 C223.384621,65.074079 223.91453,66.3504195 223.91453,67.9230769 C223.91453,69.4729422 223.390319,70.7321889 222.34188,71.7008547 C221.293442,72.6695205 219.948726,73.1538462 218.307692,73.1538462 C216.689451,73.1538462 215.356131,72.6695205 214.307692,71.7008547 C213.259254,70.7321889 212.735043,69.4729422 212.735043,67.9230769 Z M256.905983,55.2393162 L256.905983,72.7777778 L246.649573,72.7777778 L246.649573,23 L266.068376,23 C269.806286,23 273.094003,23.6837538 275.931624,25.0512821 C278.769245,26.4188103 280.951559,28.3618108 282.478632,30.8803419 C284.005706,33.398873 284.769231,36.2649412 284.769231,39.4786325 C284.769231,44.3561497 283.099732,48.2022651 279.760684,51.017094 C276.421636,53.8319229 271.800599,55.2393162 265.897436,55.2393162 L256.905983,55.2393162 Z M256.905983,46.9316239 L266.068376,46.9316239 C268.78064,46.9316239 270.848996,46.2934537 272.273504,45.017094 C273.698013,43.7407344 274.410256,41.9173908 274.410256,39.5470085 C274.410256,37.1082499 273.692315,35.1367597 272.25641,33.6324786 C270.820506,32.1281976 268.837619,31.3532766 266.307692,31.3076923 L256.905983,31.3076923 L256.905983,46.9316239 Z M311.948718,45.0512821 C310.603982,44.868945 309.418809,44.7777778 308.393162,44.7777778 C304.655252,44.7777778 302.205134,46.0427224 301.042735,48.5726496 L301.042735,72.7777778 L291.162393,72.7777778 L291.162393,35.7863248 L300.495726,35.7863248 L300.769231,40.1965812 C302.752147,36.8005528 305.498558,35.1025641 309.008547,35.1025641 C310.10257,35.1025641 311.1282,35.2507108 312.08547,35.5470085 L311.948718,45.0512821 Z M315.162393,53.9401709 C315.162393,50.2706369 315.868939,47.0000144 317.282051,44.1282051 C318.695164,41.2563959 320.729331,39.0341959 323.384615,37.4615385 C326.039899,35.888881 329.12249,35.1025641 332.632479,35.1025641 C337.623957,35.1025641 341.69799,36.6296144 344.854701,39.6837607 C348.011412,42.737907 349.772078,46.8860137 350.136752,52.1282051 L350.205128,54.6581197 C350.205128,60.3333617 348.621098,64.8860227 345.452991,68.3162393 C342.284884,71.7464559 338.034215,73.4615385 332.700855,73.4615385 C327.367495,73.4615385 323.111127,71.7521538 319.931624,68.3333333 C316.752121,64.9145128 315.162393,60.2649867 315.162393,54.3846154 L315.162393,53.9401709 Z M325.042735,54.6581197 C325.042735,58.1681087 325.703697,60.8518426 327.025641,62.7094017 C328.347585,64.5669609 330.239304,65.4957265 332.700855,65.4957265 C335.094029,65.4957265 336.962956,64.5783568 338.307692,62.7435897 C339.652428,60.9088227 340.324786,57.9743791 340.324786,53.9401709 C340.324786,50.4985583 339.652428,47.8319183 338.307692,45.9401709 C336.962956,44.0484236 335.071237,43.1025641 332.632479,43.1025641 C330.216512,43.1025641 328.347585,44.0427256 327.025641,45.9230769 C325.703697,47.8034282 325.042735,50.71508 325.042735,54.6581197 Z M365.555556,35.7863248 L365.863248,39.9230769 C368.484344,36.7093856 372.028468,35.1025641 376.495726,35.1025641 C381.259283,35.1025641 384.529906,36.9828872 386.307692,40.7435897 C388.905996,36.9828872 392.609663,35.1025641 397.418803,35.1025641 C401.430219,35.1025641 404.415945,36.2706436 406.376068,38.6068376 C408.336192,40.9430316 409.316239,44.458666 409.316239,49.1538462 L409.316239,72.7777778 L399.401709,72.7777778 L399.401709,49.1880342 C399.401709,47.0911576 398.991457,45.5584094 398.17094,44.5897436 C397.350423,43.6210778 395.903144,43.1367521 393.82906,43.1367521 C390.866082,43.1367521 388.814821,44.5498434 387.675214,47.3760684 L387.709402,72.7777778 L377.82906,72.7777778 L377.82906,49.2222222 C377.82906,47.0797614 377.407412,45.5299193 376.564103,44.5726496 C375.720794,43.6153798 374.28491,43.1367521 372.25641,43.1367521 C369.452977,43.1367521 367.424508,44.2991337 366.17094,46.6239316 L366.17094,72.7777778 L356.290598,72.7777778 L356.290598,35.7863248 L365.555556,35.7863248 Z M450.205128,54.6239316 C450.205128,60.3219658 448.911694,64.8860227 446.324786,68.3162393 C443.737879,71.7464559 440.245036,73.4615385 435.846154,73.4615385 C432.108243,73.4615385 429.088331,72.1624062 426.786325,69.5641026 L426.786325,87 L416.905983,87 L416.905983,35.7863248 L426.068376,35.7863248 L426.410256,39.4102564 C428.803431,36.5384472 431.925907,35.1025641 435.777778,35.1025641 C440.336205,35.1025641 443.880329,36.7891569 446.410256,40.1623932 C448.940184,43.5356294 450.205128,48.1851556 450.205128,54.1111111 L450.205128,54.6239316 Z M440.324786,53.9059829 C440.324786,50.4643703 439.715106,47.8091262 438.495726,45.9401709 C437.276347,44.0712157 435.504285,43.1367521 433.179487,43.1367521 C430.079757,43.1367521 427.948724,44.3219255 426.786325,46.6923077 L426.786325,61.8376068 C427.994308,64.2763655 430.148133,65.4957265 433.247863,65.4957265 C437.965836,65.4957265 440.324786,61.6325173 440.324786,53.9059829 Z M468.153846,26.6923077 L468.153846,35.7863248 L474.478632,35.7863248 L474.478632,43.034188 L468.153846,43.034188 L468.153846,61.4957265 C468.153846,62.8632547 468.415952,63.8433019 468.940171,64.4358974 C469.46439,65.028493 470.467229,65.3247863 471.948718,65.3247863 C473.042741,65.3247863 474.011392,65.245015 474.854701,65.0854701 L474.854701,72.5726496 C472.917369,73.1652451 470.923087,73.4615385 468.871795,73.4615385 C461.942985,73.4615385 458.410257,69.9629979 458.273504,62.965812 L458.273504,43.034188 L452.871795,43.034188 L452.871795,35.7863248 L458.273504,35.7863248 L458.273504,26.6923077 L468.153846,26.6923077 Z M497.008547,73.4615385 C491.584018,73.4615385 487.168108,71.7977374 483.760684,68.4700855 C480.353259,65.1424335 478.649573,60.7094294 478.649573,55.1709402 L478.649573,54.2136752 C478.649573,50.4985569 479.367514,47.1766528 480.803419,44.2478632 C482.239323,41.3190737 484.273491,39.062686 486.905983,37.4786325 C489.538475,35.894579 492.541294,35.1025641 495.91453,35.1025641 C500.974384,35.1025641 504.95725,36.6979897 507.863248,39.8888889 C510.769245,43.079788 512.222222,47.6039593 512.222222,53.4615385 L512.222222,57.4957265 L488.666667,57.4957265 C488.985757,59.911693 489.94871,61.8489956 491.555556,63.3076923 C493.162401,64.7663891 495.196569,65.4957265 497.65812,65.4957265 C501.464406,65.4957265 504.438736,64.1168229 506.581197,61.3589744 L511.435897,66.7948718 C509.954409,68.8917484 507.948731,70.5270597 505.418803,71.7008547 C502.888876,72.8746497 500.085485,73.4615385 497.008547,73.4615385 Z M495.880342,43.1025641 C493.920218,43.1025641 492.33049,43.7635262 491.111111,45.0854701 C489.891732,46.407414 489.111113,48.299133 488.769231,50.7606838 L502.512821,50.7606838 L502.512821,49.974359 C502.467236,47.7863138 501.87465,46.0940231 500.735043,44.8974359 C499.595436,43.7008487 497.977218,43.1025641 495.880342,43.1025641 Z M538.615385,45.0512821 C537.270649,44.868945 536.085475,44.7777778 535.059829,44.7777778 C531.321919,44.7777778 528.871801,46.0427224 527.709402,48.5726496 L527.709402,72.7777778 L517.82906,72.7777778 L517.82906,35.7863248 L527.162393,35.7863248 L527.435897,40.1965812 C529.418813,36.8005528 532.165225,35.1025641 535.675214,35.1025641 C536.769236,35.1025641 537.794867,35.2507108 538.752137,35.5470085 L538.615385,45.0512821 Z" id="Mr.-Prompter-Copy-4" fill="#101030"></path>
    </g>
</svg>