<svg width="40" height="40" viewBox="0 0 24 24" version="1.1" xmlns="http://www.w3.org/2000/svg" xmlns:xlink="http://www.w3.org/1999/xlink">
    <g id="Page-1" stroke="none" stroke-width="1" fill="none" fill-rule="evenodd">
        <g id="Artboard-2" fill="#ffffff">
            <rect id="Rectangle" x="28" y="15" width="8" height="40"></rect>
            <rect id="Rectangle-2" x="9" y="15" width="46" height="10"></rect>
            <rect id="Rectangle-2" x="9" y="22" width="15" height="3"></rect>
            <rect id="Rectangle-2-Copy-10" x="9" y="15" width="15" height="3"></rect>
            <rect id="Rectangle-2-Copy-12" x="9" y="8" width="46" height="3"></rect>
            <rect id="Rectangle-2-Copy-4" x="40" y="22" width="15" height="3"></rect>
            <rect id="Rectangle-2-Copy-11" x="40" y="15" width="15" height="3"></rect>
            <rect id="Rectangle-2-Copy" x="9" y="30" width="15" height="3"></rect>
            <rect id="Rectangle-2-Copy-5" x="40" y="30" width="15" height="3"></rect>
            <rect id="Rectangle-2-Copy-2" x="9" y="37" width="15" height="3"></rect>
            <rect id="Rectangle-2-Copy-6" x="40" y="37" width="15" height="3"></rect>
            <rect id="Rectangle-2-Copy-3" x="9" y="44" width="15" height="3"></rect>
            <rect id="Rectangle-2-Copy-8" x="9" y="51" width="15" height="3"></rect>
            <rect id="Rectangle-2-Copy-9" x="40" y="51" width="15" height="3"></rect>
            <rect id="Rectangle-2-Copy-7" x="40" y="44" width="15" height="3"></rect>
        </g>
    </g>
</svg>