<svg width="128px" height="128px" viewBox="0 0 128 128" version="1.1" xmlns="http://www.w3.org/2000/svg" xmlns:xlink="http://www.w3.org/1999/xlink">
<g stroke="none" stroke-width="1" fill="none" fill-rule="evenodd">
        <g transform="translate(40.000000, 92.000000)" fill="#101030">
            <path d="M4.20316258,0.798117553 C1.67522447,0.736944874 1.54873849,2.46813169 1.54873849,2.46813169 C1.54873849,2.46813169 1.02622669,5.35870177 6.7311007,6.62803486 C12.4359747,7.89736795 12.498334,1.92173257 24.4860649,1.92173257 C24.4829669,2.27333079 24.4954444,2.63886541 24.4860649,3.26317778 C24.4766853,3.88749015 24.4860649,4.89803212 24.4860649,4.89803212 C23.7062441,8.25602906 21.7522773,13.0952638 12,11.7816977 C2.24772272,10.4681316 0.419945284,5.13948803 0.134034531,4.07246174 C-0.151876221,3.00543545 -0.394157429,-0.0692749901 4.05761463,0.00689724245 C4.4657546,-0.0692749901 5.43274883,0.504327713 4.20316258,0.798117553 Z" id="Path-4"></path>
            <path d="M28.2031626,0.798117553 C25.6752245,0.736944874 25.5487385,2.46813169 25.5487385,2.46813169 C25.5487385,2.46813169 25.0262267,5.35870177 30.7311007,6.62803486 C36.4359747,7.89736795 36.498334,1.92173257 48.4860649,1.92173257 C48.4829669,2.27333079 48.4954444,2.63886541 48.4860649,3.26317778 C48.4766853,3.88749015 48.4860649,4.89803212 48.4860649,4.89803212 C47.7062441,8.25602906 45.7522773,13.0952638 36,11.7816977 C26.2477227,10.4681316 24.4199453,5.13948803 24.1340345,4.07246174 C23.8481238,3.00543545 23.6058426,-0.0692749901 28.0576146,0.00689724245 C28.4657546,-0.0692749901 29.4327488,0.504327713 28.2031626,0.798117553 Z" id="Path-4" transform="translate(36.244812, 6.001188) scale(-1, 1) translate(-36.244812, -6.001188) "></path>
        </g>
        <g transform="translate(15.335015, 24.000000)">
            <g transform="translate(39.122201, 50.115144)"></g>
            <rect fill="#101030" x="16.6649849" y="0" width="64" height="8" rx="4"></rect>
            <rect fill="#101030" x="16.6649849" y="12" width="64" height="8" rx="4"></rect>
            <rect fill="#101030" x="0.664984946" y="36" width="96" height="8" rx="4"></rect>
            <rect fill="#101030" x="16.6649849" y="24" width="24" height="8" rx="4"></rect>
            <rect fill="#101030" x="44.6649849" y="23.8499985" width="36" height="8" rx="4"></rect>
        </g>
        <circle fill="#101030" cx="48" cy="80" r="4"></circle>
        <circle fill="#101030" cx="80" cy="80" r="4"></circle>
    </g>
</svg>